<svg xmlns="http://www.w3.org/2000/svg" width="1280" height="578" style="cursor: move; touch-action: none; -webkit-tap-highlight-color: rgba(0, 0, 0, 0);"><g transform="translate(809,113.5) scale(0.5)"><rect class="rect" id="0_0" width="28" height="28" x="-655" y="275" style="fill: rgb(128, 255, 128); stroke: black; stroke-width: 1; opacity: 0.8;"></rect><rect class="rect" id="1_0" width="28" height="28" x="-587" y="215" style="fill: rgb(128, 255, 128); stroke: black; stroke-width: 1; opacity: 0.8;"></rect><rect class="rect" id="1_1" width="28" height="28" x="-579" y="223" style="fill: rgb(0, 0, 255); stroke: black; stroke-width: 1; opacity: 0.8;"></rect><rect class="rect" id="1_2" width="28" height="28" x="-571" y="231" style="fill: rgb(128, 255, 128); stroke: black; stroke-width: 1; opacity: 0.8;"></rect><rect class="rect" id="1_3" width="28" height="28" x="-563" y="239" style="fill: rgb(0, 0, 255); stroke: black; stroke-width: 1; opacity: 0.8;"></rect><rect class="rect" id="1_4" width="28" height="28" x="-555" y="247" style="fill: rgb(128, 255, 128); stroke: black; stroke-width: 1; opacity: 0.8;"></rect><rect class="rect" id="1_5" width="28" height="28" x="-547" y="255" style="fill: rgb(0, 0, 255); stroke: black; stroke-width: 1; opacity: 0.8;"></rect><rect class="rect" id="1_6" width="28" height="28" x="-539" y="263" style="fill: rgb(128, 255, 128); stroke: black; stroke-width: 1; opacity: 0.8;"></rect><rect class="rect" id="1_7" width="28" height="28" x="-531" y="271" style="fill: rgb(0, 0, 255); stroke: black; stroke-width: 1; opacity: 0.8;"></rect><rect class="rect" id="1_8" width="28" height="28" x="-523" y="279" style="fill: rgb(128, 255, 128); stroke: black; stroke-width: 1; opacity: 0.8;"></rect><rect class="rect" id="1_9" width="28" height="28" x="-515" y="287" style="fill: rgb(0, 0, 255); stroke: black; stroke-width: 1; opacity: 0.8;"></rect><rect class="rect" id="1_10" width="28" height="28" x="-507" y="295" style="fill: rgb(128, 255, 128); stroke: black; stroke-width: 1; opacity: 0.8;"></rect><rect class="rect" id="1_11" width="28" height="28" x="-499" y="303" style="fill: rgb(0, 0, 255); stroke: black; stroke-width: 1; opacity: 0.8;"></rect><rect class="rect" id="1_12" width="28" height="28" x="-491" y="311" style="fill: rgb(128, 255, 128); stroke: black; stroke-width: 1; opacity: 0.8;"></rect><rect class="rect" id="1_13" width="28" height="28" x="-483" y="319" style="fill: rgb(0, 0, 255); stroke: black; stroke-width: 1; opacity: 0.8;"></rect><rect class="rect" id="1_14" width="28" height="28" x="-475" y="327" style="fill: rgb(128, 255, 128); stroke: black; stroke-width: 1; opacity: 0.8;"></rect><rect class="rect" id="1_15" width="28" height="28" x="-467" y="335" style="fill: rgb(0, 0, 255); stroke: black; stroke-width: 1; opacity: 0.8;"></rect><rect class="rect" id="2_0" width="28" height="28" x="-429" y="151" style="fill: rgb(128, 255, 128); stroke: black; stroke-width: 1; opacity: 0.8;"></rect><rect class="rect" id="2_1" width="28" height="28" x="-421" y="159" style="fill: rgb(0, 0, 255); stroke: black; stroke-width: 1; opacity: 0.8;"></rect><rect class="rect" id="2_2" width="28" height="28" x="-413" y="167" style="fill: rgb(128, 255, 128); stroke: black; stroke-width: 1; opacity: 0.8;"></rect><rect class="rect" id="2_3" width="28" height="28" x="-405" y="175" style="fill: rgb(0, 0, 255); stroke: black; stroke-width: 1; opacity: 0.8;"></rect><rect class="rect" id="2_4" width="28" height="28" x="-397" y="183" style="fill: rgb(128, 255, 128); stroke: black; stroke-width: 1; opacity: 0.8;"></rect><rect class="rect" id="2_5" width="28" height="28" x="-389" y="191" style="fill: rgb(0, 0, 255); stroke: black; stroke-width: 1; opacity: 0.8;"></rect><rect class="rect" id="2_6" width="28" height="28" x="-381" y="199" style="fill: rgb(128, 255, 128); stroke: black; stroke-width: 1; opacity: 0.8;"></rect><rect class="rect" id="2_7" width="28" height="28" x="-373" y="207" style="fill: rgb(0, 0, 255); stroke: black; stroke-width: 1; opacity: 0.8;"></rect><rect class="rect" id="2_8" width="28" height="28" x="-365" y="215" style="fill: rgb(128, 255, 128); stroke: black; stroke-width: 1; opacity: 0.8;"></rect><rect class="rect" id="2_9" width="28" height="28" x="-357" y="223" style="fill: rgb(0, 0, 255); stroke: black; stroke-width: 1; opacity: 0.8;"></rect><rect class="rect" id="2_10" width="28" height="28" x="-349" y="231" style="fill: rgb(128, 255, 128); stroke: black; stroke-width: 1; opacity: 0.8;"></rect><rect class="rect" id="2_11" width="28" height="28" x="-341" y="239" style="fill: rgb(0, 0, 255); stroke: black; stroke-width: 1; opacity: 0.8;"></rect><rect class="rect" id="2_12" width="28" height="28" x="-333" y="247" style="fill: rgb(128, 255, 128); stroke: black; stroke-width: 1; opacity: 0.8;"></rect><rect class="rect" id="2_13" width="28" height="28" x="-325" y="255" style="fill: rgb(0, 0, 255); stroke: black; stroke-width: 1; opacity: 0.8;"></rect><rect class="rect" id="2_14" width="28" height="28" x="-317" y="263" style="fill: rgb(128, 255, 128); stroke: black; stroke-width: 1; opacity: 0.8;"></rect><rect class="rect" id="2_15" width="28" height="28" x="-309" y="271" style="fill: rgb(0, 0, 255); stroke: black; stroke-width: 1; opacity: 0.8;"></rect><rect class="rect" id="2_16" width="28" height="28" x="-301" y="279" style="fill: rgb(128, 255, 128); stroke: black; stroke-width: 1; opacity: 0.8;"></rect><rect class="rect" id="2_17" width="28" height="28" x="-293" y="287" style="fill: rgb(0, 0, 255); stroke: black; stroke-width: 1; opacity: 0.8;"></rect><rect class="rect" id="2_18" width="28" height="28" x="-285" y="295" style="fill: rgb(128, 255, 128); stroke: black; stroke-width: 1; opacity: 0.8;"></rect><rect class="rect" id="2_19" width="28" height="28" x="-277" y="303" style="fill: rgb(0, 0, 255); stroke: black; stroke-width: 1; opacity: 0.8;"></rect><rect class="rect" id="2_20" width="28" height="28" x="-269" y="311" style="fill: rgb(128, 255, 128); stroke: black; stroke-width: 1; opacity: 0.8;"></rect><rect class="rect" id="2_21" width="28" height="28" x="-261" y="319" style="fill: rgb(0, 0, 255); stroke: black; stroke-width: 1; opacity: 0.8;"></rect><rect class="rect" id="2_22" width="28" height="28" x="-253" y="327" style="fill: rgb(128, 255, 128); stroke: black; stroke-width: 1; opacity: 0.8;"></rect><rect class="rect" id="2_23" width="28" height="28" x="-245" y="335" style="fill: rgb(0, 0, 255); stroke: black; stroke-width: 1; opacity: 0.8;"></rect><rect class="rect" id="2_24" width="28" height="28" x="-237" y="343" style="fill: rgb(128, 255, 128); stroke: black; stroke-width: 1; opacity: 0.8;"></rect><rect class="rect" id="2_25" width="28" height="28" x="-229" y="351" style="fill: rgb(0, 0, 255); stroke: black; stroke-width: 1; opacity: 0.8;"></rect><rect class="rect" id="2_26" width="28" height="28" x="-221" y="359" style="fill: rgb(128, 255, 128); stroke: black; stroke-width: 1; opacity: 0.8;"></rect><rect class="rect" id="2_27" width="28" height="28" x="-213" y="367" style="fill: rgb(0, 0, 255); stroke: black; stroke-width: 1; opacity: 0.8;"></rect><rect class="rect" id="2_28" width="28" height="28" x="-205" y="375" style="fill: rgb(128, 255, 128); stroke: black; stroke-width: 1; opacity: 0.8;"></rect><rect class="rect" id="2_29" width="28" height="28" x="-197" y="383" style="fill: rgb(0, 0, 255); stroke: black; stroke-width: 1; opacity: 0.8;"></rect><rect class="rect" id="2_30" width="28" height="28" x="-189" y="391" style="fill: rgb(128, 255, 128); stroke: black; stroke-width: 1; opacity: 0.8;"></rect><rect class="rect" id="2_31" width="28" height="28" x="-181" y="399" style="fill: rgb(0, 0, 255); stroke: black; stroke-width: 1; opacity: 0.8;"></rect><rect class="rect" id="3_0" width="14" height="14" x="-173" y="158" style="fill: rgb(128, 255, 128); stroke: black; stroke-width: 1; opacity: 0.8;"></rect><rect class="rect" id="3_1" width="14" height="14" x="-165" y="166" style="fill: rgb(0, 0, 255); stroke: black; stroke-width: 1; opacity: 0.8;"></rect><rect class="rect" id="3_2" width="14" height="14" x="-157" y="174" style="fill: rgb(128, 255, 128); stroke: black; stroke-width: 1; opacity: 0.8;"></rect><rect class="rect" id="3_3" width="14" height="14" x="-149" y="182" style="fill: rgb(0, 0, 255); stroke: black; stroke-width: 1; opacity: 0.8;"></rect><rect class="rect" id="3_4" width="14" height="14" x="-141" y="190" style="fill: rgb(128, 255, 128); stroke: black; stroke-width: 1; opacity: 0.8;"></rect><rect class="rect" id="3_5" width="14" height="14" x="-133" y="198" style="fill: rgb(0, 0, 255); stroke: black; stroke-width: 1; opacity: 0.8;"></rect><rect class="rect" id="3_6" width="14" height="14" x="-125" y="206" style="fill: rgb(128, 255, 128); stroke: black; stroke-width: 1; opacity: 0.8;"></rect><rect class="rect" id="3_7" width="14" height="14" x="-117" y="214" style="fill: rgb(0, 0, 255); stroke: black; stroke-width: 1; opacity: 0.8;"></rect><rect class="rect" id="3_8" width="14" height="14" x="-109" y="222" style="fill: rgb(128, 255, 128); stroke: black; stroke-width: 1; opacity: 0.8;"></rect><rect class="rect" id="3_9" width="14" height="14" x="-101" y="230" style="fill: rgb(0, 0, 255); stroke: black; stroke-width: 1; opacity: 0.8;"></rect><rect class="rect" id="3_10" width="14" height="14" x="-93" y="238" style="fill: rgb(128, 255, 128); stroke: black; stroke-width: 1; opacity: 0.8;"></rect><rect class="rect" id="3_11" width="14" height="14" x="-85" y="246" style="fill: rgb(0, 0, 255); stroke: black; stroke-width: 1; opacity: 0.8;"></rect><rect class="rect" id="3_12" width="14" height="14" x="-77" y="254" style="fill: rgb(128, 255, 128); stroke: black; stroke-width: 1; opacity: 0.8;"></rect><rect class="rect" id="3_13" width="14" height="14" x="-69" y="262" style="fill: rgb(0, 0, 255); stroke: black; stroke-width: 1; opacity: 0.8;"></rect><rect class="rect" id="3_14" width="14" height="14" x="-61" y="270" style="fill: rgb(128, 255, 128); stroke: black; stroke-width: 1; opacity: 0.8;"></rect><rect class="rect" id="3_15" width="14" height="14" x="-53" y="278" style="fill: rgb(0, 0, 255); stroke: black; stroke-width: 1; opacity: 0.8;"></rect><rect class="rect" id="3_16" width="14" height="14" x="-45" y="286" style="fill: rgb(128, 255, 128); stroke: black; stroke-width: 1; opacity: 0.8;"></rect><rect class="rect" id="3_17" width="14" height="14" x="-37" y="294" style="fill: rgb(0, 0, 255); stroke: black; stroke-width: 1; opacity: 0.8;"></rect><rect class="rect" id="3_18" width="14" height="14" x="-29" y="302" style="fill: rgb(128, 255, 128); stroke: black; stroke-width: 1; opacity: 0.8;"></rect><rect class="rect" id="3_19" width="14" height="14" x="-21" y="310" style="fill: rgb(0, 0, 255); stroke: black; stroke-width: 1; opacity: 0.8;"></rect><rect class="rect" id="3_20" width="14" height="14" x="-13" y="318" style="fill: rgb(128, 255, 128); stroke: black; stroke-width: 1; opacity: 0.8;"></rect><rect class="rect" id="3_21" width="14" height="14" x="-5" y="326" style="fill: rgb(0, 0, 255); stroke: black; stroke-width: 1; opacity: 0.8;"></rect><rect class="rect" id="3_22" width="14" height="14" x="3" y="334" style="fill: rgb(128, 255, 128); stroke: black; stroke-width: 1; opacity: 0.8;"></rect><rect class="rect" id="3_23" width="14" height="14" x="11" y="342" style="fill: rgb(0, 0, 255); stroke: black; stroke-width: 1; opacity: 0.8;"></rect><rect class="rect" id="3_24" width="14" height="14" x="19" y="350" style="fill: rgb(128, 255, 128); stroke: black; stroke-width: 1; opacity: 0.8;"></rect><rect class="rect" id="3_25" width="14" height="14" x="27" y="358" style="fill: rgb(0, 0, 255); stroke: black; stroke-width: 1; opacity: 0.8;"></rect><rect class="rect" id="3_26" width="14" height="14" x="35" y="366" style="fill: rgb(128, 255, 128); stroke: black; stroke-width: 1; opacity: 0.8;"></rect><rect class="rect" id="3_27" width="14" height="14" x="43" y="374" style="fill: rgb(0, 0, 255); stroke: black; stroke-width: 1; opacity: 0.8;"></rect><rect class="rect" id="3_28" width="14" height="14" x="51" y="382" style="fill: rgb(128, 255, 128); stroke: black; stroke-width: 1; opacity: 0.8;"></rect><rect class="rect" id="3_29" width="14" height="14" x="59" y="390" style="fill: rgb(0, 0, 255); stroke: black; stroke-width: 1; opacity: 0.8;"></rect><rect class="rect" id="3_30" width="14" height="14" x="67" y="398" style="fill: rgb(128, 255, 128); stroke: black; stroke-width: 1; opacity: 0.8;"></rect><rect class="rect" id="3_31" width="14" height="14" x="75" y="406" style="fill: rgb(0, 0, 255); stroke: black; stroke-width: 1; opacity: 0.8;"></rect><rect class="rect" id="4_0" width="14" height="14" x="69" y="30" style="fill: rgb(128, 255, 128); stroke: black; stroke-width: 1; opacity: 0.8;"></rect><rect class="rect" id="4_1" width="14" height="14" x="77" y="38" style="fill: rgb(0, 0, 255); stroke: black; stroke-width: 1; opacity: 0.8;"></rect><rect class="rect" id="4_2" width="14" height="14" x="85" y="46" style="fill: rgb(128, 255, 128); stroke: black; stroke-width: 1; opacity: 0.8;"></rect><rect class="rect" id="4_3" width="14" height="14" x="93" y="54" style="fill: rgb(0, 0, 255); stroke: black; stroke-width: 1; opacity: 0.8;"></rect><rect class="rect" id="4_4" width="14" height="14" x="101" y="62" style="fill: rgb(128, 255, 128); stroke: black; stroke-width: 1; opacity: 0.8;"></rect><rect class="rect" id="4_5" width="14" height="14" x="109" y="70" style="fill: rgb(0, 0, 255); stroke: black; stroke-width: 1; opacity: 0.8;"></rect><rect class="rect" id="4_6" width="14" height="14" x="117" y="78" style="fill: rgb(128, 255, 128); stroke: black; stroke-width: 1; opacity: 0.8;"></rect><rect class="rect" id="4_7" width="14" height="14" x="125" y="86" style="fill: rgb(0, 0, 255); stroke: black; stroke-width: 1; opacity: 0.8;"></rect><rect class="rect" id="4_8" width="14" height="14" x="133" y="94" style="fill: rgb(128, 255, 128); stroke: black; stroke-width: 1; opacity: 0.8;"></rect><rect class="rect" id="4_9" width="14" height="14" x="141" y="102" style="fill: rgb(0, 0, 255); stroke: black; stroke-width: 1; opacity: 0.8;"></rect><rect class="rect" id="4_10" width="14" height="14" x="149" y="110" style="fill: rgb(128, 255, 128); stroke: black; stroke-width: 1; opacity: 0.8;"></rect><rect class="rect" id="4_11" width="14" height="14" x="157" y="118" style="fill: rgb(0, 0, 255); stroke: black; stroke-width: 1; opacity: 0.8;"></rect><rect class="rect" id="4_12" width="14" height="14" x="165" y="126" style="fill: rgb(128, 255, 128); stroke: black; stroke-width: 1; opacity: 0.8;"></rect><rect class="rect" id="4_13" width="14" height="14" x="173" y="134" style="fill: rgb(0, 0, 255); stroke: black; stroke-width: 1; opacity: 0.8;"></rect><rect class="rect" id="4_14" width="14" height="14" x="181" y="142" style="fill: rgb(128, 255, 128); stroke: black; stroke-width: 1; opacity: 0.8;"></rect><rect class="rect" id="4_15" width="14" height="14" x="189" y="150" style="fill: rgb(0, 0, 255); stroke: black; stroke-width: 1; opacity: 0.8;"></rect><rect class="rect" id="4_16" width="14" height="14" x="197" y="158" style="fill: rgb(128, 255, 128); stroke: black; stroke-width: 1; opacity: 0.8;"></rect><rect class="rect" id="4_17" width="14" height="14" x="205" y="166" style="fill: rgb(0, 0, 255); stroke: black; stroke-width: 1; opacity: 0.8;"></rect><rect class="rect" id="4_18" width="14" height="14" x="213" y="174" style="fill: rgb(128, 255, 128); stroke: black; stroke-width: 1; opacity: 0.8;"></rect><rect class="rect" id="4_19" width="14" height="14" x="221" y="182" style="fill: rgb(0, 0, 255); stroke: black; stroke-width: 1; opacity: 0.8;"></rect><rect class="rect" id="4_20" width="14" height="14" x="229" y="190" style="fill: rgb(128, 255, 128); stroke: black; stroke-width: 1; opacity: 0.8;"></rect><rect class="rect" id="4_21" width="14" height="14" x="237" y="198" style="fill: rgb(0, 0, 255); stroke: black; stroke-width: 1; opacity: 0.8;"></rect><rect class="rect" id="4_22" width="14" height="14" x="245" y="206" style="fill: rgb(128, 255, 128); stroke: black; stroke-width: 1; opacity: 0.8;"></rect><rect class="rect" id="4_23" width="14" height="14" x="253" y="214" style="fill: rgb(0, 0, 255); stroke: black; stroke-width: 1; opacity: 0.8;"></rect><rect class="rect" id="4_24" width="14" height="14" x="261" y="222" style="fill: rgb(128, 255, 128); stroke: black; stroke-width: 1; opacity: 0.8;"></rect><rect class="rect" id="4_25" width="14" height="14" x="269" y="230" style="fill: rgb(0, 0, 255); stroke: black; stroke-width: 1; opacity: 0.8;"></rect><rect class="rect" id="4_26" width="14" height="14" x="277" y="238" style="fill: rgb(128, 255, 128); stroke: black; stroke-width: 1; opacity: 0.8;"></rect><rect class="rect" id="4_27" width="14" height="14" x="285" y="246" style="fill: rgb(0, 0, 255); stroke: black; stroke-width: 1; opacity: 0.8;"></rect><rect class="rect" id="4_28" width="14" height="14" x="293" y="254" style="fill: rgb(128, 255, 128); stroke: black; stroke-width: 1; opacity: 0.8;"></rect><rect class="rect" id="4_29" width="14" height="14" x="301" y="262" style="fill: rgb(0, 0, 255); stroke: black; stroke-width: 1; opacity: 0.8;"></rect><rect class="rect" id="4_30" width="14" height="14" x="309" y="270" style="fill: rgb(128, 255, 128); stroke: black; stroke-width: 1; opacity: 0.8;"></rect><rect class="rect" id="4_31" width="14" height="14" x="317" y="278" style="fill: rgb(0, 0, 255); stroke: black; stroke-width: 1; opacity: 0.8;"></rect><rect class="rect" id="4_32" width="14" height="14" x="325" y="286" style="fill: rgb(128, 255, 128); stroke: black; stroke-width: 1; opacity: 0.8;"></rect><rect class="rect" id="4_33" width="14" height="14" x="333" y="294" style="fill: rgb(0, 0, 255); stroke: black; stroke-width: 1; opacity: 0.8;"></rect><rect class="rect" id="4_34" width="14" height="14" x="341" y="302" style="fill: rgb(128, 255, 128); stroke: black; stroke-width: 1; opacity: 0.8;"></rect><rect class="rect" id="4_35" width="14" height="14" x="349" y="310" style="fill: rgb(0, 0, 255); stroke: black; stroke-width: 1; opacity: 0.8;"></rect><rect class="rect" id="4_36" width="14" height="14" x="357" y="318" style="fill: rgb(128, 255, 128); stroke: black; stroke-width: 1; opacity: 0.8;"></rect><rect class="rect" id="4_37" width="14" height="14" x="365" y="326" style="fill: rgb(0, 0, 255); stroke: black; stroke-width: 1; opacity: 0.8;"></rect><rect class="rect" id="4_38" width="14" height="14" x="373" y="334" style="fill: rgb(128, 255, 128); stroke: black; stroke-width: 1; opacity: 0.8;"></rect><rect class="rect" id="4_39" width="14" height="14" x="381" y="342" style="fill: rgb(0, 0, 255); stroke: black; stroke-width: 1; opacity: 0.8;"></rect><rect class="rect" id="4_40" width="14" height="14" x="389" y="350" style="fill: rgb(128, 255, 128); stroke: black; stroke-width: 1; opacity: 0.8;"></rect><rect class="rect" id="4_41" width="14" height="14" x="397" y="358" style="fill: rgb(0, 0, 255); stroke: black; stroke-width: 1; opacity: 0.8;"></rect><rect class="rect" id="4_42" width="14" height="14" x="405" y="366" style="fill: rgb(128, 255, 128); stroke: black; stroke-width: 1; opacity: 0.8;"></rect><rect class="rect" id="4_43" width="14" height="14" x="413" y="374" style="fill: rgb(0, 0, 255); stroke: black; stroke-width: 1; opacity: 0.8;"></rect><rect class="rect" id="4_44" width="14" height="14" x="421" y="382" style="fill: rgb(128, 255, 128); stroke: black; stroke-width: 1; opacity: 0.8;"></rect><rect class="rect" id="4_45" width="14" height="14" x="429" y="390" style="fill: rgb(0, 0, 255); stroke: black; stroke-width: 1; opacity: 0.8;"></rect><rect class="rect" id="4_46" width="14" height="14" x="437" y="398" style="fill: rgb(128, 255, 128); stroke: black; stroke-width: 1; opacity: 0.8;"></rect><rect class="rect" id="4_47" width="14" height="14" x="445" y="406" style="fill: rgb(0, 0, 255); stroke: black; stroke-width: 1; opacity: 0.8;"></rect><rect class="rect" id="4_48" width="14" height="14" x="453" y="414" style="fill: rgb(128, 255, 128); stroke: black; stroke-width: 1; opacity: 0.8;"></rect><rect class="rect" id="4_49" width="14" height="14" x="461" y="422" style="fill: rgb(0, 0, 255); stroke: black; stroke-width: 1; opacity: 0.8;"></rect><rect class="rect" id="4_50" width="14" height="14" x="469" y="430" style="fill: rgb(128, 255, 128); stroke: black; stroke-width: 1; opacity: 0.8;"></rect><rect class="rect" id="4_51" width="14" height="14" x="477" y="438" style="fill: rgb(0, 0, 255); stroke: black; stroke-width: 1; opacity: 0.8;"></rect><rect class="rect" id="4_52" width="14" height="14" x="485" y="446" style="fill: rgb(128, 255, 128); stroke: black; stroke-width: 1; opacity: 0.8;"></rect><rect class="rect" id="4_53" width="14" height="14" x="493" y="454" style="fill: rgb(0, 0, 255); stroke: black; stroke-width: 1; opacity: 0.8;"></rect><rect class="rect" id="4_54" width="14" height="14" x="501" y="462" style="fill: rgb(128, 255, 128); stroke: black; stroke-width: 1; opacity: 0.8;"></rect><rect class="rect" id="4_55" width="14" height="14" x="509" y="470" style="fill: rgb(0, 0, 255); stroke: black; stroke-width: 1; opacity: 0.8;"></rect><rect class="rect" id="4_56" width="14" height="14" x="517" y="478" style="fill: rgb(128, 255, 128); stroke: black; stroke-width: 1; opacity: 0.8;"></rect><rect class="rect" id="4_57" width="14" height="14" x="525" y="486" style="fill: rgb(0, 0, 255); stroke: black; stroke-width: 1; opacity: 0.8;"></rect><rect class="rect" id="4_58" width="14" height="14" x="533" y="494" style="fill: rgb(128, 255, 128); stroke: black; stroke-width: 1; opacity: 0.8;"></rect><rect class="rect" id="4_59" width="14" height="14" x="541" y="502" style="fill: rgb(0, 0, 255); stroke: black; stroke-width: 1; opacity: 0.8;"></rect><rect class="rect" id="4_60" width="14" height="14" x="549" y="510" style="fill: rgb(128, 255, 128); stroke: black; stroke-width: 1; opacity: 0.8;"></rect><rect class="rect" id="4_61" width="14" height="14" x="557" y="518" style="fill: rgb(0, 0, 255); stroke: black; stroke-width: 1; opacity: 0.8;"></rect><rect class="rect" id="4_62" width="14" height="14" x="565" y="526" style="fill: rgb(128, 255, 128); stroke: black; stroke-width: 1; opacity: 0.8;"></rect><rect class="rect" id="4_63" width="14" height="14" x="573" y="534" style="fill: rgb(0, 0, 255); stroke: black; stroke-width: 1; opacity: 0.8;"></rect><rect class="conv" id="conv_0" width="3" height="3" x="-644.857792546628" y="280.64606371179514" style="fill-opacity: 0; stroke: black; stroke-width: 1; stroke-opacity: 0.8;"></rect><rect class="conv" id="conv_1" width="3" height="3" x="-463.5315740747048" y="351.4639916141988" style="fill-opacity: 0; stroke: black; stroke-width: 1; stroke-opacity: 0.8;"></rect><rect class="conv" id="conv_2" width="3" height="3" x="-167.55735445409385" y="403.14290230410194" style="fill-opacity: 0; stroke: black; stroke-width: 1; stroke-opacity: 0.8;"></rect><rect class="conv" id="conv_3" width="2" height="2" x="79.51608095829374" y="416.58636365750016" style="fill-opacity: 0; stroke: black; stroke-width: 1; stroke-opacity: 0.8;"></rect><line class="link" id="conv_0" x1="-641.857792546628" y1="283.64606371179514" x2="-455.6407276522234" y2="341.32359135721055" style="stroke: black; stroke-width: 0.5; stroke-opacity: 0.8;"></line><line class="link" id="conv_0" x1="-641.857792546628" y1="280.64606371179514" x2="-455.6407276522234" y2="341.32359135721055" style="stroke: black; stroke-width: 0.5; stroke-opacity: 0.8;"></line><line class="link" id="conv_1" x1="-460.5315740747048" y1="354.4639916141988" x2="-177.11536296366938" y2="417.43967060790266" style="stroke: black; stroke-width: 0.5; stroke-opacity: 0.8;"></line><line class="link" id="conv_1" x1="-460.5315740747048" y1="351.4639916141988" x2="-177.11536296366938" y2="417.43967060790266" style="stroke: black; stroke-width: 0.5; stroke-opacity: 0.8;"></line><line class="link" id="conv_2" x1="-164.55735445409385" y1="406.14290230410194" x2="82.52788150570746" y2="408.3200252902971" style="stroke: black; stroke-width: 0.5; stroke-opacity: 0.8;"></line><line class="link" id="conv_2" x1="-164.55735445409385" y1="403.14290230410194" x2="82.52788150570746" y2="408.3200252902971" style="stroke: black; stroke-width: 0.5; stroke-opacity: 0.8;"></line><line class="link" id="conv_3" x1="81.51608095829374" y1="418.58636365750016" x2="578.2687611180093" y2="546.3507576004168" style="stroke: black; stroke-width: 0.5; stroke-opacity: 0.8;"></line><line class="link" id="conv_3" x1="81.51608095829374" y1="416.58636365750016" x2="578.2687611180093" y2="546.3507576004168" style="stroke: black; stroke-width: 0.5; stroke-opacity: 0.8;"></line><polygon class="poly" id="fc_0" points="597,198.49033200812192 607,198.49033200812192 788.0193359837562,379.5096679918781 778.0193359837562,379.5096679918781" style="fill: rgb(0, 0, 255); stroke: black; stroke-width: 1; opacity: 0.8;"></polygon><polygon class="poly" id="fc_1" points="790.0193359837563,285.46446609406723 800.0193359837563,285.46446609406723 807.0904037956217,292.5355339059327 797.0904037956217,292.5355339059327" style="fill: rgb(0, 0, 255); stroke: black; stroke-width: 1; opacity: 0.8;"></polygon><line class="line" id="fc_0" x1="587" y1="548" x2="778.0193359837563" y2="379.5096679918781" style="stroke: black; stroke-width: 0.5; stroke-opacity: 0.8;"></line><line class="line" id="fc_0" x1="83" y1="30" x2="597" y2="198.49033200812192" style="stroke: black; stroke-width: 0.5; stroke-opacity: 0.8;"></line><line class="line" id="fc_1" x1="788.0193359837563" y1="379.5096679918781" x2="797.0904037956218" y2="292.5355339059327" style="stroke: black; stroke-width: 0.5; stroke-opacity: 0.8;"></line><line class="line" id="fc_1" x1="607" y1="198.49033200812192" x2="790.0193359837563" y2="285.46446609406723" style="stroke: black; stroke-width: 0.5; stroke-opacity: 0.8;"></line><text class="text" dy=".35em" font-family="sans-serif" x="-585" y="793" style="font-size: 16px;">Convolution</text><text class="text" dy=".35em" font-family="sans-serif" x="-380" y="793" style="font-size: 16px;">Convolution</text><text class="text" dy=".35em" font-family="sans-serif" x="-112.5" y="793" style="font-size: 16px;">Max-Pool</text><text class="text" dy=".35em" font-family="sans-serif" x="193.5" y="793" style="font-size: 16px;">Dropout</text><text class="text" dy=".35em" font-family="sans-serif" x="770.7871029367227" y="793" style="font-size: 16px;">Flatten</text><text class="info" dy="-0.3em" font-family="sans-serif" x="-655" y="260" style="font-size: 16px;">1@28x28</text><text class="info" dy="-0.3em" font-family="sans-serif" x="-587" y="200" style="font-size: 16px;">16@28x28</text><text class="info" dy="-0.3em" font-family="sans-serif" x="-429" y="136" style="font-size: 16px;">32@28x28</text><text class="info" dy="-0.3em" font-family="sans-serif" x="-173" y="143" style="font-size: 16px;">32@14x14</text><text class="info" dy="-0.3em" font-family="sans-serif" x="69" y="15" style="font-size: 16px;">64@14x14</text><text class="info" dy="-0.3em" font-family="sans-serif" x="597" y="183.49033200812192" style="font-size: 16px;">1x256</text><text class="info" dy="-0.3em" font-family="sans-serif" x="790.0193359837563" y="270.46446609406723" style="font-size: 16px;">1x10</text></g></svg>